<?xml version="1.0" encoding="utf-8"?>
<!-- Generator: Adobe Illustrator 20.0.0, SVG Export Plug-In . SVG Version: 6.00 Build 0)  -->
<svg version="1.1" id="Layer_1" xmlns="http://www.w3.org/2000/svg" xmlns:xlink="http://www.w3.org/1999/xlink" x="0px" y="0px"
	 width="48px" height="48px" viewBox="0 0 48 48" style="enable-background:new 0 0 48 48;" xml:space="preserve">
<style type="text/css">
	.st0{fill:#FFFFFF;}
</style>
<path class="st0" d="M46,26h-4c-1.1,0-2-0.9-2-2s0.9-2,2-2h4c1.1,0,2,0.9,2,2S47.1,26,46,26z M38.1,12.7c-0.8,0.8-2,0.8-2.8,0
	s-0.8-2,0-2.8L38.1,7c0.8-0.8,2-0.8,2.8,0s0.8,2,0,2.8L38.1,12.7z M24,36c-6.6,0-12-5.4-12-12s5.4-12,12-12s12,5.4,12,12
	S30.6,36,24,36z M24,16c-4.4,0-8,3.6-8,8s3.6,8,8,8s8-3.6,8-8S28.4,16,24,16z M24,8c-1.1,0-2-0.9-2-2V2c0-1.1,0.9-2,2-2s2,0.9,2,2v4
	C26,7.1,25.1,8,24,8z M9.9,12.7L7,9.9C6.2,9.1,6.2,7.8,7,7s2-0.8,2.8,0l2.8,2.8c0.8,0.8,0.8,2,0,2.8S10.6,13.5,9.9,12.7z M8,24
	c0,1.1-0.9,2-2,2H2c-1.1,0-2-0.9-2-2s0.9-2,2-2h4C7.1,22,8,22.9,8,24z M9.9,35.3c0.8-0.8,2-0.8,2.8,0s0.8,2,0,2.8L9.9,41
	c-0.8,0.8-2,0.8-2.8,0s-0.8-2,0-2.8L9.9,35.3z M24,40c1.1,0,2,0.9,2,2v4c0,1.1-0.9,2-2,2s-2-0.9-2-2v-4C22,40.9,22.9,40,24,40z
	 M38.1,35.3l2.8,2.8c0.8,0.8,0.8,2,0,2.8s-2,0.8-2.8,0l-2.8-2.8c-0.8-0.8-0.8-2,0-2.8S37.4,34.5,38.1,35.3z"/>
</svg>
