<?xml version="1.0" encoding="utf-8"?>
<!-- Generator: Adobe Illustrator 20.0.0, SVG Export Plug-In . SVG Version: 6.00 Build 0)  -->
<svg version="1.1" id="Layer_1" xmlns="http://www.w3.org/2000/svg" xmlns:xlink="http://www.w3.org/1999/xlink" x="0px" y="0px"
	 width="24px" height="24px" viewBox="0 0 24 24" style="enable-background:new 0 0 24 24;" xml:space="preserve">
<style type="text/css">
	.st0{fill:#FFFFFF;}
</style>
<path class="st0" d="M12,24C5.4,24,0,18.6,0,12C0,5.4,5.4,0,12,0c0.8,0,1.5,0.1,2.2,0.2C14.1,0.8,14,1.4,14,2c0,4.4,3.6,8,8,8
	c0.6,0,1.2-0.1,1.8-0.2c0.1,0.7,0.2,1.5,0.2,2.2C24,18.6,18.6,24,12,24z M10.2,4.2C6.7,5,4,8.2,4,12c0,4.4,3.6,8,8,8
	c3.8,0,7-2.7,7.8-6.2C14.9,12.9,11.1,9.1,10.2,4.2z"/>
</svg>
