<?xml version="1.0" encoding="utf-8"?>
<!-- Generator: Adobe Illustrator 20.0.0, SVG Export Plug-In . SVG Version: 6.00 Build 0)  -->
<svg version="1.1" id="Layer_1" xmlns="http://www.w3.org/2000/svg" xmlns:xlink="http://www.w3.org/1999/xlink" x="0px" y="0px"
	 width="45px" height="47px" viewBox="0 0 45 47" style="enable-background:new 0 0 45 47;" xml:space="preserve">
<style type="text/css">
	.st0{fill:#FFFFFF;}
</style>
<path class="st0" d="M41.8,20.1L41.8,20.1c0.6,0.9,1.1,1.9,1.5,2.9h0l0,0h-4.4l0,0l0,0c-1.4-2.4-4-4-6.9-4c-1.6,0-3.1,0.5-4.3,1.3
	C26.4,15,21.7,11,16,11C9.4,11,4,16.4,4,23l0,0H0l0,0C0,14.2,7.2,7,16,7c2,0,3.9,0.4,5.7,1l0,0c1.6-4.7,6.1-8,11.3-8
	c0.8,0,1.5,0.1,2.2,0.2C35.1,0.8,35,1.4,35,2c0,4.4,3.6,8,8,8c0.6,0,1.2-0.1,1.8-0.2c0.1,0.7,0.2,1.5,0.2,2.2
	C45,15.1,43.8,18,41.8,20.1z M31.2,4.2C28.3,4.9,26,7.1,25.3,10l0,0c1.9,1.4,3.5,3.2,4.7,5.2c0.7-0.1,1.3-0.2,2-0.2
	c2.6,0,5,0.8,7,2.3l0,0c0.9-1,1.5-2.2,1.8-3.5C35.9,12.9,32.1,9.1,31.2,4.2z M2,27h40c1.1,0,2,0.9,2,2s-0.9,2-2,2H2
	c-1.1,0-2-0.9-2-2S0.9,27,2,27z M2,35h40c1.1,0,2,0.9,2,2c0,1.1-0.9,2-2,2H2c-1.1,0-2-0.9-2-2S0.9,35,2,35z M2,43h40
	c1.1,0,2,0.9,2,2s-0.9,2-2,2H2c-1.1,0-2-0.9-2-2S0.9,43,2,43z"/>
</svg>
