<?xml version="1.0" encoding="utf-8"?>
<!-- Generator: Adobe Illustrator 20.0.0, SVG Export Plug-In . SVG Version: 6.00 Build 0)  -->
<svg version="1.1" id="Layer_1" xmlns="http://www.w3.org/2000/svg" xmlns:xlink="http://www.w3.org/1999/xlink" x="0px" y="0px"
	 width="45px" height="51px" viewBox="0 0 45 51" style="enable-background:new 0 0 45 51;" xml:space="preserve">
<style type="text/css">
	.st0{fill:#FFFFFF;}
</style>
<g>
	<g>
		<path class="st0" d="M22,31c-1.1,0-2,0.9-2,2v16c0,1.1,0.9,2,2,2c1.1,0,2-0.9,2-2V33C24,31.9,23.1,31,22,31z M30,27
			c-1.1,0-2,0.9-2,2v16c0,1.1,0.9,2,2,2c1.1,0,2-0.9,2-2V29C32,27.9,31.1,27,30,27z M14,27c-1.1,0-2,0.9-2,2v16c0,1.1,0.9,2,2,2
			c1.1,0,2-0.9,2-2V29C16,27.9,15.1,27,14,27z M45,12c0-0.8-0.1-1.5-0.2-2.2C44.2,9.9,43.6,10,43,10c-4.4,0-8-3.6-8-8
			c0-0.6,0.1-1.2,0.2-1.8C34.5,0.1,33.8,0,33,0c-5.2,0-9.7,3.4-11.3,8C19.9,7.4,18,7,16,7C7.2,7,0,14.2,0,23c0,5.9,3.2,11.1,8,13.8
			v-4.9c-2.5-2.2-4-5.4-4-8.9c0-6.6,5.4-12,12-12c5.7,0,10.4,4,11.7,9.3c1.2-0.8,2.7-1.3,4.3-1.3c4.4,0,8,3.6,8,8c0,3-1.6,5.5-4,6.9
			v4.4c4.7-1.6,8-6.1,8-11.3c0-2.6-0.8-4.9-2.2-6.9C43.8,18,45,15.1,45,12z M39,17.3c-2-1.4-4.4-2.3-7-2.3c-0.7,0-1.4,0.1-2,0.2
			c-1.2-2.1-2.8-3.8-4.7-5.2c0.8-2.9,3-5.1,5.9-5.8c0.9,4.9,4.7,8.7,9.6,9.6C40.5,15.1,39.9,16.3,39,17.3z"/>
	</g>
</g>
</svg>
