<?xml version="1.0" encoding="utf-8"?>
<!-- Generator: Adobe Illustrator 20.0.0, SVG Export Plug-In . SVG Version: 6.00 Build 0)  -->
<svg version="1.1" id="Layer_1" xmlns="http://www.w3.org/2000/svg" xmlns:xlink="http://www.w3.org/1999/xlink" x="0px" y="0px"
	 width="54px" height="60px" viewBox="0 0 54 60" style="enable-background:new 0 0 54 60;" xml:space="preserve">
<style type="text/css">
	.st0{fill:#FFFFFF;}
</style>
<path class="st0" d="M52,26h-4c-1.1,0-2-0.9-2-2c0-1.1,0.9-2,2-2h4c1.1,0,2,0.9,2,2C54,25.1,53.1,26,52,26z M44.1,12.7
	c-0.8,0.8-2,0.8-2.8,0c-0.8-0.8-0.8-2,0-2.8L44.1,7c0.8-0.8,2-0.8,2.8,0c0.8,0.8,0.8,2,0,2.8L44.1,12.7z M41.2,28.3L41.2,28.3
	c1.8,2.1,2.8,4.8,2.8,7.7c0,5.2-3.3,9.7-8,11.3v-4.4c2.4-1.4,4-4,4-6.9c0-4.4-3.6-8-8-8c-1.6,0-3.1,0.5-4.3,1.3
	C26.4,24,21.7,20,16,20C9.4,20,4,25.4,4,32c0,3.5,1.6,6.7,4,8.9v4.9C3.2,43.1,0,37.9,0,32c0-8.8,7.2-16,16-16c1.6,0,3.1,0.2,4.5,0.7
	c2.2-2.8,5.6-4.7,9.5-4.7c6.6,0,12,5.4,12,12C42,25.5,41.7,27,41.2,28.3z M30,16c-2.2,0-4.2,0.9-5.7,2.3c2.3,1.4,4.3,3.5,5.6,5.9
	c0.7-0.1,1.3-0.2,2-0.2c2.1,0,4.1,0.6,5.9,1.5l0,0c0.1-0.5,0.2-1,0.2-1.5C38,19.6,34.4,16,30,16z M30,8c-1.1,0-2-0.9-2-2V2
	c0-1.1,0.9-2,2-2c1.1,0,2,0.9,2,2v4C32,7.1,31.1,8,30,8z M15.9,12.7L13,9.9c-0.8-0.8-0.8-2,0-2.8c0.8-0.8,2-0.8,2.8,0l2.8,2.8
	c0.8,0.8,0.8,2,0,2.8C17.9,13.5,16.6,13.5,15.9,12.7z M14,36c1.1,0,2,0.9,2,2v16c0,1.1-0.9,2-2,2c-1.1,0-2-0.9-2-2V38
	C12,36.9,12.9,36,14,36z M22,40c1.1,0,2,0.9,2,2v16c0,1.1-0.9,2-2,2c-1.1,0-2-0.9-2-2V42C20,40.9,20.9,40,22,40z M30,36
	c1.1,0,2,0.9,2,2v16c0,1.1-0.9,2-2,2c-1.1,0-2-0.9-2-2V38C28,36.9,28.9,36,30,36z"/>
</svg>
