<?xml version="1.0" encoding="utf-8"?>
<!-- Generator: Adobe Illustrator 20.0.0, SVG Export Plug-In . SVG Version: 6.00 Build 0)  -->
<svg version="1.1" id="Layer_1" xmlns="http://www.w3.org/2000/svg" xmlns:xlink="http://www.w3.org/1999/xlink" x="0px" y="0px"
	 width="54px" height="54px" viewBox="0 0 54 54" style="enable-background:new 0 0 54 54;" xml:space="preserve">
<style type="text/css">
	.st0{fill:#FFFFFF;}
</style>
<path class="st0" d="M52,26h-4c-1.1,0-2-0.9-2-2c0-1.1,0.9-2,2-2h4c1.1,0,2,0.9,2,2C54,25.1,53.1,26,52,26z M44.1,12.7
	c-0.8,0.8-2,0.8-2.8,0c-0.8-0.8-0.8-2,0-2.8L44.1,7c0.8-0.8,2-0.8,2.8,0c0.8,0.8,0.8,2,0,2.8L44.1,12.7z M41.2,28.3L41.2,28.3
	c1.7,2.1,2.8,4.8,2.8,7.7c0,5.9-4.3,10.9-10,11.8v-4.1c3.4-0.9,6-4,6-7.7c0-4.4-3.6-8-8-8c-1.6,0-3.1,0.5-4.3,1.3
	C26.4,24,21.7,20,16,20C9.4,20,4,25.4,4,32c0,4.4,2.4,8.3,6,10.4v4.4C4.1,44.4,0,38.7,0,32c0-8.8,7.2-16,16-16
	c1.6,0,3.1,0.2,4.5,0.7c2.2-2.8,5.6-4.7,9.5-4.7c6.6,0,12,5.4,12,12C42,25.5,41.7,27,41.2,28.3z M30,16c-2.2,0-4.2,0.9-5.7,2.4
	c2.3,1.4,4.3,3.5,5.6,5.9c0.7-0.1,1.3-0.2,2-0.2c2.1,0,4.1,0.6,5.8,1.5l0,0c0.1-0.5,0.1-1,0.1-1.5C38,19.6,34.4,16,30,16z M30,8
	c-1.1,0-2-0.9-2-2V2c0-1.1,0.9-2,2-2s2,0.9,2,2v4C32,7.1,31.1,8,30,8z M15.9,12.7L13,9.9c-0.8-0.8-0.8-2,0-2.8s2-0.8,2.8,0l2.8,2.8
	c0.8,0.8,0.8,2,0,2.8S16.6,13.5,15.9,12.7z M15.1,42c0.6-1,1.8-1.3,2.7-0.7l2.2,1.3V40c0-1.1,0.9-2,2-2s2,0.9,2,2v2.5l2.2-1.3
	c1-0.6,2.2-0.2,2.7,0.7c0.6,1,0.2,2.2-0.7,2.7L26,46l2.2,1.3c1,0.6,1.3,1.8,0.7,2.7c-0.6,1-1.8,1.3-2.7,0.7L24,49.5V52
	c0,1.1-0.9,2-2,2s-2-0.9-2-2v-2.5l-2.2,1.3c-1,0.6-2.2,0.2-2.7-0.7c-0.6-1-0.2-2.2,0.7-2.7L18,46l-2.2-1.3
	C14.8,44.2,14.5,43,15.1,42z M22,48c1.1,0,2-0.9,2-2c0-1.1-0.9-2-2-2s-2,0.9-2,2C20,47.1,20.9,48,22,48z"/>
</svg>
