<?xml version="1.0" encoding="utf-8"?>
<!-- Generator: Adobe Illustrator 20.0.0, SVG Export Plug-In . SVG Version: 6.00 Build 0)  -->
<svg version="1.1" id="Layer_1" xmlns="http://www.w3.org/2000/svg" xmlns:xlink="http://www.w3.org/1999/xlink" x="0px" y="0px"
	 width="45px" height="45px" viewBox="0 0 45 45" style="enable-background:new 0 0 45 45;" xml:space="preserve">
<style type="text/css">
	.st0{fill:#FFFFFF;}
</style>
<path class="st0" d="M41.8,20.1L41.8,20.1c1.4,1.9,2.2,4.3,2.2,6.9c0,5.2-3.3,9.7-8,11.3v-4.4c2.4-1.4,4-4,4-6.9c0-4.4-3.6-8-8-8
	c-1.6,0-3.1,0.5-4.3,1.3C26.4,15,21.7,11,16,11C9.4,11,4,16.4,4,23c0,3.5,1.5,6.7,4,8.9v4.9C3.2,34.1,0,28.9,0,23C0,14.2,7.2,7,16,7
	c2,0,3.9,0.4,5.7,1l0,0c1.6-4.7,6.1-8,11.3-8c0.8,0,1.5,0.1,2.2,0.2C35.1,0.8,35,1.4,35,2c0,4.4,3.6,8,8,8c0.6,0,1.2-0.1,1.8-0.2
	c0.1,0.7,0.2,1.5,0.2,2.2C45,15.1,43.8,18,41.8,20.1z M31.2,4.2C28.3,4.9,26,7.1,25.3,10l0,0c1.9,1.4,3.5,3.2,4.7,5.2
	c0.7-0.1,1.3-0.2,2-0.2c2.6,0,5,0.8,7,2.3l0,0c0.9-1,1.5-2.2,1.8-3.5C35.9,12.9,32.1,9.1,31.2,4.2z M15.1,33c0.6-1,1.8-1.3,2.7-0.7
	l2.2,1.3V31c0-1.1,0.9-2,2-2s2,0.9,2,2v2.5l2.2-1.3c1-0.6,2.2-0.2,2.7,0.7c0.6,1,0.2,2.2-0.7,2.7L26,37l2.2,1.3
	c1,0.6,1.3,1.8,0.7,2.7c-0.6,1-1.8,1.3-2.7,0.7L24,40.5V43c0,1.1-0.9,2-2,2c-1.1,0-2-0.9-2-2v-2.5l-2.2,1.3c-1,0.6-2.2,0.2-2.7-0.7
	c-0.6-1-0.2-2.2,0.7-2.7L18,37l-2.2-1.3C14.8,35.2,14.5,34,15.1,33z M22,39c1.1,0,2-0.9,2-2c0-1.1-0.9-2-2-2c-1.1,0-2,0.9-2,2
	C20,38.1,20.9,39,22,39z"/>
</svg>
