<?xml version="1.0" encoding="utf-8"?>
<!-- Generator: Adobe Illustrator 20.0.0, SVG Export Plug-In . SVG Version: 6.00 Build 0)  -->
<svg version="1.1" id="Layer_1" xmlns="http://www.w3.org/2000/svg" xmlns:xlink="http://www.w3.org/1999/xlink" x="0px" y="0px"
	 width="42px" height="36px" viewBox="0 0 42 36" style="enable-background:new 0 0 42 36;" xml:space="preserve">
<style type="text/css">
	.st0{fill:#FFFFFF;}
</style>
<path class="st0" d="M40,4H2C0.9,4,0,3.1,0,2c0-1.1,0.9-2,2-2h38c1.1,0,2,0.9,2,2C42,3.1,41.1,4,40,4z M4,8h30c1.1,0,2,0.9,2,2
	s-0.9,2-2,2H4c-1.1,0-2-0.9-2-2C2,8.9,2.9,8,4,8z M16,16h22c1.1,0,2,0.9,2,2c0,1.1-0.9,2-2,2H16c-1.1,0-2-0.9-2-2
	C14,16.9,14.9,16,16,16z M18,32h6c1.1,0,2,0.9,2,2c0,1.1-0.9,2-2,2h-6c-1.1,0-2-0.9-2-2C16,32.9,16.9,32,18,32z M19,26
	c0-1.1,0.9-2,2-2h14c1.1,0,2,0.9,2,2c0,1.1-0.9,2-2,2H21C19.9,28,19,27.1,19,26z"/>
</svg>
